<?xml version="1.0" standalone="no"?>
<!DOCTYPE svg PUBLIC "-//W3C//DTD SVG 1.1//EN" "http://www.w3.org/Graphics/SVG/1.1/DTD/svg11.dtd">
<svg class="icon" style="width: 1.078125em;height: 1em;vertical-align: middle;fill: currentColor;overflow: hidden;" viewBox="0 0 1104 1024" version="1.1" xmlns="http://www.w3.org/2000/svg"><path d="M181.187765 814.381176c12.629333 5.220392 18.612706 19.71702 13.372235 32.326275-7.93098 19.034353-7.93098 36.763608-0.160627 54.814118 13.131294 30.438902 13.131294 62.162824 0.200784 93.625725a24.756706 24.756706 0 1 1-45.798902-18.873725c7.93098-19.235137 7.93098-37.104941 0.160627-55.155451-13.111216-30.438902-13.111216-62.122667-0.12047-93.404863a24.756706 24.756706 0 0 1 32.346353-13.372235v0.020078z m247.506823 0c12.629333 5.220392 18.612706 19.71702 13.352157 32.326275-7.910902 19.034353-7.910902 36.763608-0.140549 54.814118 13.111216 30.438902 13.111216 62.162824 0.180706 93.625725a24.756706 24.756706 0 0 1-45.778824-18.873725c7.93098-19.235137 7.93098-37.104941 0.160628-55.155451-13.111216-30.438902-13.111216-62.122667-0.120471-93.404863a24.756706 24.756706 0 0 1 32.326275-13.372235v0.020078z m247.506824 0c12.609255 5.220392 18.592627 19.71702 13.352157 32.326275-7.910902 19.034353-7.910902 36.763608-0.140549 54.814118 13.111216 30.438902 13.111216 62.162824 0.160627 93.625725a24.756706 24.756706 0 1 1-45.778823-18.873725c7.951059-19.235137 7.951059-37.104941 0.180705-55.155451-13.131294-30.438902-13.131294-62.122667-0.140549-93.404863a24.756706 24.756706 0 0 1 32.366432-13.372235v0.020078z m247.486745 0c12.629333 5.220392 18.612706 19.71702 13.372235 32.326275-7.93098 19.034353-7.93098 36.763608-0.160627 54.814118 13.131294 30.438902 13.131294 62.162824 0.180706 93.625725a24.756706 24.756706 0 0 1-45.778824-18.873725c7.93098-19.235137 7.93098-37.104941 0.160628-55.155451-13.111216-30.438902-13.111216-62.122667-0.120471-93.404863a24.756706 24.756706 0 0 1 32.346353-13.372235v0.020078zM802.856157 20.48a24.756706 24.756706 0 0 1 24.756706 24.736627v371.250197h123.743372c6.565647 0 12.850196 2.610196 17.508392 7.248313l123.743373 123.743373c4.397176 4.296784 6.987294 10.099451 7.288471 16.243451l-0.040157 1.264941v173.256784a49.493333 49.493333 0 0 1-49.493334 49.493334H60.355765a49.493333 49.493333 0 0 1-49.493334-49.493334v-171.831215a24.214588 24.214588 0 0 1 7.248314-18.933961l123.743373-123.743373c4.658196-4.638118 10.942745-7.248314 17.508392-7.248313H283.105882V45.216627a24.756706 24.756706 0 0 1 24.756706-24.756705h494.993569zM60.355765 589.703529v148.520157h990.007215V589.703529H60.355765z m148.459921 49.513412a24.756706 24.756706 0 0 1 0 49.493334H159.322353a24.756706 24.756706 0 1 1 0-49.493334H208.815686z m99.026824-173.256784l-0.421647-0.020079-137.818353 0.020079-74.250039 74.250039H1015.366275l-74.25004-74.250039h-633.273725z m470.236863-395.986824H332.579137v346.493491h445.500236V69.973333z" /></svg>