<?xml version="1.0" standalone="no"?>
<!DOCTYPE svg PUBLIC "-//W3C//DTD SVG 1.1//EN" "http://www.w3.org/Graphics/SVG/1.1/DTD/svg11.dtd">
<svg class="icon" style="width: 1.1533203125em;height: 1em;vertical-align: middle;fill: currentColor;overflow: hidden;" viewBox="0 0 1181 1024" version="1.1" xmlns="http://www.w3.org/2000/svg"><path d="M1161.846154 445.636923c-2.284308-46.966154-31.980308-131.465846-134.774154-140.859077V70.045538c0-16.443077-6.852923-28.179692-13.705846-35.229538-15.990154-14.08-34.264615-14.08-36.548923-14.08-75.382154 0-728.694154-2.363077-760.674462 0-43.401846 4.686769-57.107692 42.259692-57.107692 61.046154v220.652308C72.231385 318.857846 31.113846 396.327385 19.692308 440.910769v375.591385c4.568615 37.553231 36.548923 110.316308 137.058461 110.316308h2.284308v49.309538c0 14.08 11.421538 28.16 27.411692 28.16H1001.944615c13.705846 0 27.411692-11.736615 27.411693-28.16v-49.309538h43.401846c13.705846 0 43.401846-2.343385 63.960615-23.473231 11.421538-11.736615 25.127385-30.523077 25.127385-65.732923V445.636923zM220.711385 74.712615c22.843077-2.363077 461.430154 0 753.821538 0v227.702154c-34.264615 4.686769-59.392 18.766769-79.950769 39.896616-38.833231 42.259692-36.548923 100.942769-36.548923 100.942769V527.753846H348.632615v-91.549538c-9.137231-44.603077-50.254769-122.052923-137.058461-136.152616V79.419077c0 2.363077 2.284308-2.363077 9.137231-4.686769z m753.821538 873.235693H211.574154v-21.129846h762.958769v21.129846z m134.774154-110.336c0 16.443077-6.852923 23.473231-9.137231 25.836307-9.137231 9.373538-25.127385 9.373538-34.264615 9.373539H156.750769c-70.813538 0-82.235077-49.289846-84.519384-58.683077V450.304C76.8 433.880615 101.927385 356.430769 184.162462 356.430769s107.362462 77.469538 111.931076 93.892923v136.152616H910.572308V445.636923s0-37.553231 22.843077-61.046154c15.990154-16.423385 41.117538-25.796923 73.097846-25.796923 95.940923 0 102.793846 82.156308 105.078154 89.206154v389.651692h-2.284308z" /></svg>