<?xml version="1.0" standalone="no"?>
<!DOCTYPE svg PUBLIC "-//W3C//DTD SVG 1.1//EN" "http://www.w3.org/Graphics/SVG/1.1/DTD/svg11.dtd">
<svg class="icon" style="width: 1.28515625em;height: 1em;vertical-align: middle;fill: currentColor;overflow: hidden;" viewBox="0 0 1316 1024" version="1.1" xmlns="http://www.w3.org/2000/svg"><path d="M1213.537524 248.027429h-140.214857c-9.094095 0-17.700571 1.536-26.087619 3.754666V102.619429c0-56.56381-46.201905-102.619429-103.009524-102.619429h-572.708572c-56.807619 0-103.009524 46.031238-103.009523 102.619429v148.894476a102.960762 102.960762 0 0 0-25.283048-3.486476h-140.190476C46.250667 248.027429 0 294.058667 0 350.622476v570.782476C0 977.944381 46.226286 1024 103.058286 1024h140.190476c56.807619 0 103.033905-46.08 103.033905-102.595048v-58.709333c8.118857 2.048 16.481524 3.486476 25.234285 3.486476h572.708572c9.069714 0 17.700571-1.511619 26.087619-3.730285v58.977523c0 56.515048 46.201905 102.570667 103.009524 102.570667h140.239238C1270.369524 1024 1316.571429 977.92 1316.571429 921.429333V350.598095c0-56.56381-46.226286-102.595048-103.033905-102.595047zM371.516952 77.702095h572.708572c13.799619 0.048762 24.941714 11.190857 24.941714 24.917334v335.091809a102.278095 102.278095 0 0 0-24.941714-3.413333h-572.708572c-8.630857 0-16.896 1.389714-24.917333 3.413333V102.619429c0-13.726476 11.142095-24.868571 24.917333-24.917334z m-103.302095 843.702857c0 13.726476-11.190857 24.868571-24.990476 24.868572h-140.190476a24.941714 24.941714 0 0 1-24.966095-24.868572V350.622476c0-13.726476 11.215238-24.892952 24.990476-24.892952h140.190476A24.966095 24.966095 0 0 1 268.190476 350.598095v570.806857z m700.952381-157.817904c0 13.726476-11.142095 24.868571-24.941714 24.892952h-572.708572a24.941714 24.941714 0 0 1-24.917333-24.868571v-226.669715c0-13.726476 11.142095-24.868571 24.917333-24.941714h572.708572c13.799619 0.073143 24.941714 11.215238 24.941714 24.941714v226.645334z m269.312 157.817904c0 13.726476-11.166476 24.868571-24.941714 24.868572h-140.214857A25.014857 25.014857 0 0 1 1048.380952 921.429333V350.622476c-0.024381-13.726476 11.142095-24.868571 24.941715-24.892952h140.214857a24.966095 24.966095 0 0 1 24.941714 24.868571v570.806857z" /></svg>